<svg xmlns="http://www.w3.org/2000/svg" xmlns:xlink="http://www.w3.org/1999/xlink" width="1080" zoomAndPan="magnify" viewBox="0 0 810 809.999993" height="1080" preserveAspectRatio="xMidYMid meet" version="1.0"><rect x="-81" width="972" fill="#ffffff" y="-80.999999" height="971.999992" fill-opacity="1"/><rect x="-81" width="972" fill="#ffffff" y="-80.999999" height="971.999992" fill-opacity="1"/><path fill="#000000" d="M 472.484375 296.632812 C 456.511719 296.632812 443.5625 309.578125 443.5625 325.550781 L 443.5625 529.929688 C 443.5625 545.902344 456.511719 558.851562 472.484375 558.851562 C 488.457031 558.851562 501.402344 545.902344 501.402344 529.929688 L 501.402344 325.550781 C 501.40625 309.578125 488.457031 296.632812 472.484375 296.632812 Z M 472.484375 296.632812 " fill-opacity="1" fill-rule="nonzero"/><path fill="#000000" d="M 405 0 C 181.324219 0 0 181.324219 0 405 C 0 628.675781 181.324219 810 405 810 C 628.675781 810 810 628.675781 810 405 C 810 181.324219 628.675781 0 405 0 Z M 578.53125 258.070312 L 578.53125 578.132812 C 578.53125 610.078125 552.632812 635.976562 520.6875 635.976562 L 289.316406 635.976562 C 257.371094 635.976562 231.472656 610.078125 231.472656 578.132812 L 231.472656 258.070312 C 210.175781 258.070312 192.910156 240.804688 192.910156 219.507812 C 192.910156 198.210938 210.175781 180.945312 231.472656 180.945312 L 310.253906 180.945312 C 315.363281 180.945312 320.269531 178.914062 323.886719 175.296875 L 351.152344 148.027344 C 354.769531 144.414062 359.671875 142.382812 364.789062 142.382812 L 445.21875 142.382812 C 450.332031 142.382812 455.238281 144.414062 458.855469 148.027344 L 486.121094 175.296875 C 489.738281 178.914062 494.640625 180.945312 499.753906 180.945312 L 578.53125 180.945312 C 599.832031 180.945312 617.09375 198.210938 617.09375 219.507812 C 617.09375 240.804688 599.824219 258.070312 578.53125 258.070312 Z M 578.53125 258.070312 " fill-opacity="1" fill-rule="nonzero"/><path fill="#000000" d="M 337.515625 296.632812 C 321.542969 296.632812 308.597656 309.578125 308.597656 325.550781 L 308.597656 529.929688 C 308.597656 545.902344 321.542969 558.851562 337.515625 558.851562 C 353.488281 558.851562 366.4375 545.902344 366.4375 529.929688 L 366.4375 325.550781 C 366.4375 309.578125 353.488281 296.632812 337.515625 296.632812 Z M 337.515625 296.632812 " fill-opacity="1" fill-rule="nonzero"/></svg>