<svg xmlns="http://www.w3.org/2000/svg" xmlns:xlink="http://www.w3.org/1999/xlink" width="1080" zoomAndPan="magnify" viewBox="0 0 810 809.999993" height="1080" preserveAspectRatio="xMidYMid meet" version="1.0"><rect x="-81" width="972" fill="#ffffff" y="-80.999999" height="971.999992" fill-opacity="1"/><rect x="-81" width="972" fill="#ffffff" y="-80.999999" height="971.999992" fill-opacity="1"/><path fill="#000000" d="M 599.007812 261.585938 C 566.636719 34.113281 243.378906 34.042969 210.988281 261.589844 C -0.367188 275.535156 3.910156 580.160156 216.394531 587.332031 C 216.390625 587.332031 301.210938 587.332031 301.210938 587.332031 C 331.933594 587.125 331.808594 540.644531 301.210938 540.484375 C 301.210938 540.484375 216.390625 540.484375 216.390625 540.484375 C 152.4375 540.484375 100.40625 488.464844 100.40625 424.527344 C 99.972656 353.238281 163.625 301.277344 233.027344 308.347656 C 245.976562 308.34375 256.453125 297.867188 256.453125 284.921875 C 263.394531 88.742188 546.582031 88.664062 553.542969 284.921875 C 553.542969 297.867188 564.023438 308.34375 576.972656 308.34375 C 646.328125 301.289062 710.070312 353.230469 709.589844 424.53125 C 709.59375 488.464844 657.5625 540.484375 593.609375 540.484375 L 508.789062 540.484375 C 478.105469 540.546875 478.195312 587.261719 508.789062 587.332031 C 508.789062 587.332031 593.609375 587.332031 593.609375 587.332031 C 805.949219 580.199219 810.507812 275.589844 599.007812 261.585938 Z M 599.007812 261.585938 " fill-opacity="1" fill-rule="nonzero"/><path fill="#000000" d="M 478.835938 643.21875 L 428.429688 693.613281 L 428.429688 365.328125 C 428.34375 334.878906 381.691406 334.546875 381.570312 365.328125 C 381.570312 365.328125 381.570312 693.613281 381.570312 693.613281 L 331.160156 643.21875 C 309.46875 621.652344 276.417969 654.589844 298.03125 676.34375 C 298.03125 676.339844 388.433594 766.722656 388.433594 766.722656 C 395.027344 773.402344 405.367188 775.40625 413.96875 771.800781 C 415.5625 775.6875 509.089844 677.945312 511.96875 676.339844 C 533.503906 654.589844 500.625 621.644531 478.835938 643.21875 Z M 478.835938 643.21875 " fill-opacity="1" fill-rule="nonzero"/></svg>