<svg xmlns="http://www.w3.org/2000/svg" xmlns:xlink="http://www.w3.org/1999/xlink" width="1080" zoomAndPan="magnify" viewBox="0 0 810 809.999993" height="1080" preserveAspectRatio="xMidYMid meet" version="1.0"><rect x="-81" width="972" fill="#ffffff" y="-80.999999" height="971.999992" fill-opacity="1"/><rect x="-81" width="972" fill="#ffffff" y="-80.999999" height="971.999992" fill-opacity="1"/><path fill="#000000" d="M 172.21875 71.472656 C 78.332031 71.472656 1.890625 148.058594 1.890625 241.800781 L 1.890625 639.230469 C 1.890625 733.117188 78.332031 809.554688 172.21875 809.554688 L 569.648438 809.554688 C 663.535156 809.554688 739.976562 733.117188 739.976562 639.230469 L 739.976562 468.902344 C 739.976562 453.230469 727.261719 440.515625 711.589844 440.515625 C 695.917969 440.515625 683.199219 453.230469 683.199219 468.902344 L 683.199219 639.230469 C 683.199219 702.660156 633.078125 752.78125 569.648438 752.78125 L 172.21875 752.78125 C 108.9375 752.78125 58.667969 702.660156 58.667969 639.230469 L 58.667969 241.800781 C 58.667969 178.519531 108.9375 128.246094 172.21875 128.246094 L 342.546875 128.246094 C 358.21875 128.246094 370.933594 115.53125 370.933594 99.859375 C 370.933594 84.1875 358.21875 71.472656 342.546875 71.472656 Z M 172.21875 71.472656 " fill-opacity="1" fill-rule="nonzero"/><path fill="#000000" d="M 578.816406 51.957031 L 249.398438 381.371094 C 244.964844 385.808594 242.152344 391.574219 241.414062 397.636719 L 219.828125 556.136719 C 217.316406 574.46875 232.691406 590.140625 251.171875 588.21875 L 413.074219 570.183594 C 419.578125 569.441406 425.492188 566.632812 430.074219 562.050781 L 759.492188 232.78125 C 809.171875 182.953125 809.171875 101.78125 759.492188 51.957031 C 710.703125 1.09375 626.574219 5.675781 578.816406 51.957031 Z M 719.277344 92.171875 C 747.371094 120.265625 747.371094 164.324219 719.277344 192.5625 L 689.113281 222.726562 L 588.871094 122.332031 L 618.882812 92.171875 C 651.855469 59.199219 692.515625 65.410156 719.277344 92.171875 Z M 548.65625 162.402344 L 649.046875 262.792969 L 396.957031 514.882812 L 281.039062 527.746094 L 296.269531 414.789062 Z M 548.65625 162.402344 " fill-opacity="1" fill-rule="nonzero"/></svg>