<svg xmlns="http://www.w3.org/2000/svg" xmlns:xlink="http://www.w3.org/1999/xlink" width="1080" zoomAndPan="magnify" viewBox="0 0 810 809.999993" height="1080" preserveAspectRatio="xMidYMid meet" version="1.0"><rect x="-81" width="972" fill="#ffffff" y="-80.999999" height="971.999992" fill-opacity="1"/><rect x="-81" width="972" fill="#ffffff" y="-80.999999" height="971.999992" fill-opacity="1"/><path stroke-linecap="butt" transform="matrix(5.314961, 0, 0, 5.314961, -55.807083, -55.807067)" fill="none" stroke-linejoin="miter" d="M 30.98022 31.760003 L 75.902796 31.760003 L 75.902796 76.683314 L 30.98022 76.683314 Z M 30.98022 31.760003 " stroke="#000000" stroke-width="10.16" stroke-opacity="1" stroke-miterlimit="4"/><path stroke-linecap="butt" transform="matrix(5.314961, 0, 0, 5.314961, -55.807083, -55.807067)" fill="none" stroke-linejoin="miter" d="M 97.495001 31.760003 L 142.418312 31.760003 L 142.418312 76.683314 L 97.495001 76.683314 Z M 97.495001 31.760003 " stroke="#000000" stroke-width="10.16" stroke-opacity="1" stroke-miterlimit="4"/><path stroke-linecap="butt" transform="matrix(5.314961, 0, 0, 5.314961, -55.807083, -55.807067)" fill="none" stroke-linejoin="miter" d="M 32.864641 96.715212 L 77.787952 96.715212 L 77.787952 141.637788 L 32.864641 141.637788 Z M 32.864641 96.715212 " stroke="#000000" stroke-width="10.16" stroke-opacity="1" stroke-miterlimit="4"/><path fill="#000000" d="M 479.253906 571.160156 C 470.386719 562.257812 455.976562 562.226562 447.074219 571.097656 C 438.167969 579.964844 438.140625 594.375 447.007812 603.28125 L 506.132812 662.402344 L 506.09375 662.503906 C 515.019531 671.429688 529.488281 671.429688 538.417969 662.503906 C 538.921875 662 539.398438 661.476562 539.84375 660.9375 L 686.257812 514.523438 C 695.160156 505.65625 695.191406 491.246094 686.320312 482.34375 C 677.453125 473.4375 663.042969 473.410156 654.136719 482.277344 L 522.253906 614.160156 Z M 479.253906 571.160156 " fill-opacity="1" fill-rule="nonzero"/><path fill="#000000" d="M 83.5625 38.5625 C 94.214844 38.5625 102.847656 29.929688 102.847656 19.277344 C 102.847656 8.628906 94.214844 -0.0078125 83.5625 -0.0078125 C 60.5625 -0.0078125 39.664062 9.390625 24.527344 24.527344 C 9.390625 39.664062 -0.0078125 60.5625 -0.0078125 83.5625 C -0.0078125 94.214844 8.628906 102.847656 19.277344 102.847656 C 29.929688 102.847656 38.5625 94.214844 38.5625 83.5625 C 38.5625 71.207031 43.632812 59.960938 51.796875 51.796875 C 59.960938 43.632812 71.207031 38.5625 83.5625 38.5625 Z M 83.5625 38.5625 " fill-opacity="1" fill-rule="nonzero"/><path fill="#000000" d="M 726.421875 -0.0078125 C 715.769531 -0.0078125 707.136719 8.628906 707.136719 19.277344 C 707.136719 29.929688 715.769531 38.5625 726.421875 38.5625 C 738.777344 38.5625 750.023438 43.632812 758.1875 51.796875 C 766.351562 59.960938 771.421875 71.207031 771.421875 83.5625 C 771.421875 94.214844 780.054688 102.847656 790.707031 102.847656 C 801.359375 102.847656 809.992188 94.214844 809.992188 83.5625 C 809.992188 60.5625 800.597656 39.664062 785.457031 24.527344 C 770.320312 9.390625 749.425781 -0.0078125 726.421875 -0.0078125 Z M 726.421875 -0.0078125 " fill-opacity="1" fill-rule="nonzero"/><path fill="#000000" d="M 726.421875 771.425781 C 715.769531 771.425781 707.136719 780.058594 707.136719 790.710938 C 707.136719 801.359375 715.769531 809.996094 726.421875 809.996094 C 749.425781 809.996094 770.320312 800.597656 785.457031 785.460938 C 800.597656 770.324219 809.992188 749.425781 809.992188 726.425781 C 809.992188 715.773438 801.359375 707.140625 790.707031 707.140625 C 780.054688 707.140625 771.421875 715.773438 771.421875 726.425781 C 771.421875 738.78125 766.351562 750.027344 758.1875 758.191406 C 750.023438 766.355469 738.777344 771.425781 726.421875 771.425781 Z M 726.421875 771.425781 " fill-opacity="1" fill-rule="nonzero"/><path fill="#000000" d="M 83.5625 809.996094 C 94.214844 809.996094 102.847656 801.359375 102.847656 790.710938 C 102.847656 780.058594 94.214844 771.421875 83.5625 771.421875 C 71.207031 771.421875 59.960938 766.355469 51.796875 758.191406 C 43.632812 750.023438 38.5625 738.777344 38.5625 726.425781 C 38.5625 715.773438 29.929688 707.136719 19.277344 707.136719 C 8.628906 707.136719 -0.0078125 715.773438 -0.0078125 726.425781 C -0.0078125 749.425781 9.390625 770.324219 24.527344 785.460938 C 39.664062 800.597656 60.5625 809.996094 83.5625 809.996094 Z M 83.5625 809.996094 " fill-opacity="1" fill-rule="nonzero"/><path fill="#000000" d="M 150.421875 -0.0078125 C 139.769531 -0.0078125 131.136719 8.628906 131.136719 19.28125 C 131.136719 29.929688 139.769531 38.566406 150.421875 38.566406 L 214.707031 38.566406 C 225.359375 38.566406 233.992188 29.929688 233.992188 19.28125 C 233.992188 8.628906 225.359375 -0.0078125 214.707031 -0.0078125 Z M 150.421875 -0.0078125 " fill-opacity="1" fill-rule="nonzero"/><path fill="#000000" d="M 300.421875 -0.0078125 C 289.769531 -0.0078125 281.136719 8.628906 281.136719 19.28125 C 281.136719 29.929688 289.769531 38.566406 300.421875 38.566406 L 364.707031 38.566406 C 375.359375 38.566406 383.992188 29.929688 383.992188 19.28125 C 383.992188 8.628906 375.359375 -0.0078125 364.707031 -0.0078125 Z M 300.421875 -0.0078125 " fill-opacity="1" fill-rule="nonzero"/><path fill="#000000" d="M 450.421875 -0.0078125 C 439.769531 -0.0078125 431.136719 8.628906 431.136719 19.28125 C 431.136719 29.929688 439.769531 38.566406 450.421875 38.566406 L 514.707031 38.566406 C 525.359375 38.566406 533.992188 29.929688 533.992188 19.28125 C 533.992188 8.628906 525.359375 -0.0078125 514.707031 -0.0078125 Z M 450.421875 -0.0078125 " fill-opacity="1" fill-rule="nonzero"/><path fill="#000000" d="M 600.421875 -0.0078125 C 589.769531 -0.0078125 581.136719 8.628906 581.136719 19.28125 C 581.136719 29.929688 589.769531 38.566406 600.421875 38.566406 L 664.707031 38.566406 C 675.359375 38.566406 683.992188 29.929688 683.992188 19.28125 C 683.992188 8.628906 675.359375 -0.0078125 664.707031 -0.0078125 Z M 600.421875 -0.0078125 " fill-opacity="1" fill-rule="nonzero"/><path fill="#000000" d="M 150.421875 771.417969 C 139.769531 771.417969 131.136719 780.054688 131.136719 790.703125 C 131.136719 801.355469 139.769531 809.992188 150.421875 809.992188 L 214.707031 809.992188 C 225.359375 809.992188 233.992188 801.355469 233.992188 790.703125 C 233.992188 780.054688 225.359375 771.417969 214.707031 771.417969 Z M 150.421875 771.417969 " fill-opacity="1" fill-rule="nonzero"/><path fill="#000000" d="M 300.421875 771.417969 C 289.769531 771.417969 281.136719 780.054688 281.136719 790.703125 C 281.136719 801.355469 289.769531 809.992188 300.421875 809.992188 L 364.707031 809.992188 C 375.359375 809.992188 383.992188 801.355469 383.992188 790.703125 C 383.992188 780.054688 375.359375 771.417969 364.707031 771.417969 Z M 300.421875 771.417969 " fill-opacity="1" fill-rule="nonzero"/><path fill="#000000" d="M 450.421875 771.417969 C 439.769531 771.417969 431.136719 780.054688 431.136719 790.703125 C 431.136719 801.355469 439.769531 809.992188 450.421875 809.992188 L 514.707031 809.992188 C 525.359375 809.992188 533.992188 801.355469 533.992188 790.703125 C 533.992188 780.054688 525.359375 771.417969 514.707031 771.417969 Z M 450.421875 771.417969 " fill-opacity="1" fill-rule="nonzero"/><path fill="#000000" d="M 600.421875 771.417969 C 589.769531 771.417969 581.136719 780.054688 581.136719 790.703125 C 581.136719 801.355469 589.769531 809.992188 600.421875 809.992188 L 664.707031 809.992188 C 675.359375 809.992188 683.992188 801.355469 683.992188 790.703125 C 683.992188 780.054688 675.359375 771.417969 664.707031 771.417969 Z M 600.421875 771.417969 " fill-opacity="1" fill-rule="nonzero"/><path fill="#000000" d="M 809.996094 147.847656 C 809.996094 137.199219 801.359375 128.5625 790.707031 128.5625 C 780.058594 128.5625 771.421875 137.199219 771.421875 147.847656 L 771.421875 212.136719 C 771.421875 222.785156 780.058594 231.421875 790.707031 231.421875 C 801.359375 231.421875 809.996094 222.785156 809.996094 212.136719 Z M 809.996094 147.847656 " fill-opacity="1" fill-rule="nonzero"/><path fill="#000000" d="M 809.996094 297.851562 C 809.996094 287.199219 801.359375 278.5625 790.707031 278.5625 C 780.058594 278.5625 771.421875 287.199219 771.421875 297.851562 L 771.421875 362.136719 C 771.421875 372.785156 780.058594 381.421875 790.707031 381.421875 C 801.359375 381.421875 809.996094 372.789062 809.996094 362.136719 Z M 809.996094 297.851562 " fill-opacity="1" fill-rule="nonzero"/><path fill="#000000" d="M 809.996094 447.851562 C 809.996094 437.199219 801.359375 428.5625 790.707031 428.5625 C 780.058594 428.5625 771.421875 437.199219 771.421875 447.851562 L 771.421875 512.136719 C 771.421875 522.785156 780.058594 531.421875 790.707031 531.421875 C 801.359375 531.421875 809.996094 522.785156 809.996094 512.136719 Z M 809.996094 447.851562 " fill-opacity="1" fill-rule="nonzero"/><path fill="#000000" d="M 809.996094 597.847656 C 809.996094 587.195312 801.359375 578.5625 790.707031 578.5625 C 780.058594 578.5625 771.421875 587.195312 771.421875 597.847656 L 771.421875 662.132812 C 771.421875 672.785156 780.058594 681.421875 790.707031 681.421875 C 801.359375 681.421875 809.996094 672.785156 809.996094 662.132812 Z M 809.996094 597.847656 " fill-opacity="1" fill-rule="nonzero"/><path fill="#000000" d="M 38.566406 147.847656 C 38.566406 137.199219 29.929688 128.5625 19.28125 128.5625 C 8.628906 128.5625 -0.0078125 137.199219 -0.0078125 147.847656 L -0.0078125 212.136719 C -0.0078125 222.785156 8.628906 231.421875 19.28125 231.421875 C 29.929688 231.421875 38.566406 222.785156 38.566406 212.136719 Z M 38.566406 147.847656 " fill-opacity="1" fill-rule="nonzero"/><path fill="#000000" d="M 38.566406 297.851562 C 38.566406 287.199219 29.929688 278.5625 19.28125 278.5625 C 8.628906 278.5625 -0.0078125 287.199219 -0.0078125 297.851562 L -0.0078125 362.136719 C -0.0078125 372.785156 8.628906 381.421875 19.28125 381.421875 C 29.929688 381.421875 38.566406 372.789062 38.566406 362.136719 Z M 38.566406 297.851562 " fill-opacity="1" fill-rule="nonzero"/><path fill="#000000" d="M 38.566406 447.851562 C 38.566406 437.199219 29.929688 428.5625 19.28125 428.5625 C 8.628906 428.5625 -0.0078125 437.199219 -0.0078125 447.851562 L -0.0078125 512.136719 C -0.0078125 522.785156 8.628906 531.421875 19.28125 531.421875 C 29.929688 531.421875 38.566406 522.785156 38.566406 512.136719 Z M 38.566406 447.851562 " fill-opacity="1" fill-rule="nonzero"/><path fill="#000000" d="M 38.566406 597.847656 C 38.566406 587.195312 29.929688 578.5625 19.28125 578.5625 C 8.628906 578.5625 -0.0078125 587.195312 -0.0078125 597.847656 L -0.0078125 662.132812 C -0.0078125 672.785156 8.628906 681.421875 19.28125 681.421875 C 29.929688 681.421875 38.566406 672.785156 38.566406 662.132812 Z M 38.566406 597.847656 " fill-opacity="1" fill-rule="nonzero"/></svg>