<svg xmlns="http://www.w3.org/2000/svg" xmlns:xlink="http://www.w3.org/1999/xlink" width="1080" zoomAndPan="magnify" viewBox="0 0 810 809.999993" height="1080" preserveAspectRatio="xMidYMid meet" version="1.0"><defs><clipPath id="5d242ecf88"><path d="M 40.5 112.03125 L 769.5 112.03125 L 769.5 697.78125 L 40.5 697.78125 Z M 40.5 112.03125 " clip-rule="nonzero"/></clipPath></defs><rect x="-81" width="972" fill="#ffffff" y="-80.999999" height="971.999992" fill-opacity="1"/><rect x="-81" width="972" fill="#ffffff" y="-80.999999" height="971.999992" fill-opacity="1"/><g clip-path="url(#5d242ecf88)"><path fill="#000000" d="M 405 112.035156 C 348.324219 112.035156 291.339844 133.644531 248.125 176.84375 C 215.988281 208.96875 196.507812 248.824219 188.246094 290.382812 C 104.390625 306.644531 40.777344 379.859375 40.777344 468.234375 C 40.777344 568.5 122.589844 650.292969 222.886719 650.292969 L 309.984375 650.292969 C 310.769531 650.304688 311.554688 650.277344 312.335938 650.210938 C 313.117188 650.144531 313.894531 650.039062 314.667969 649.894531 C 315.441406 649.753906 316.203125 649.574219 316.957031 649.351562 C 317.710938 649.132812 318.453125 648.878906 319.183594 648.585938 C 319.910156 648.292969 320.625 647.964844 321.320312 647.601562 C 322.015625 647.238281 322.691406 646.84375 323.347656 646.410156 C 324.007812 645.980469 324.640625 645.519531 325.25 645.027344 C 325.863281 644.535156 326.449219 644.011719 327.007812 643.460938 C 327.566406 642.910156 328.097656 642.332031 328.597656 641.730469 C 329.101562 641.125 329.570312 640.496094 330.011719 639.847656 C 330.453125 639.199219 330.859375 638.527344 331.230469 637.835938 C 331.605469 637.148438 331.945312 636.4375 332.246094 635.714844 C 332.550781 634.992188 332.816406 634.253906 333.046875 633.503906 C 333.277344 632.753906 333.46875 631.992188 333.625 631.222656 C 333.777344 630.453125 333.894531 629.675781 333.972656 628.894531 C 334.050781 628.113281 334.089844 627.332031 334.089844 626.546875 C 334.089844 625.761719 334.050781 624.980469 333.972656 624.199219 C 333.894531 623.417969 333.777344 622.640625 333.625 621.871094 C 333.46875 621.101562 333.277344 620.339844 333.046875 619.589844 C 332.816406 618.839844 332.550781 618.105469 332.246094 617.378906 C 331.945312 616.65625 331.605469 615.945312 331.230469 615.257812 C 330.859375 614.566406 330.453125 613.894531 330.011719 613.246094 C 329.570312 612.59375 329.101562 611.96875 328.597656 611.363281 C 328.097656 610.757812 327.566406 610.179688 327.007812 609.628906 C 326.449219 609.078125 325.863281 608.558594 325.25 608.0625 C 324.640625 607.570312 324.007812 607.109375 323.347656 606.679688 C 322.691406 606.25 322.015625 605.851562 321.320312 605.492188 C 320.625 605.125 319.910156 604.800781 319.183594 604.507812 C 318.453125 604.214844 317.710938 603.957031 316.957031 603.738281 C 316.203125 603.519531 315.441406 603.339844 314.667969 603.195312 C 313.894531 603.050781 313.117188 602.949219 312.335938 602.882812 C 311.554688 602.816406 310.769531 602.789062 309.984375 602.800781 L 222.886719 602.800781 C 148.269531 602.800781 88.285156 542.832031 88.285156 468.234375 C 88.285156 397.789062 141.875 340.394531 210.515625 334.164062 C 211.851562 334.035156 213.167969 333.792969 214.464844 333.441406 C 215.757812 333.085938 217.015625 332.628906 218.230469 332.0625 C 219.449219 331.496094 220.609375 330.832031 221.714844 330.070312 C 222.820312 329.304688 223.851562 328.457031 224.8125 327.519531 C 225.773438 326.578125 226.648438 325.566406 227.433594 324.484375 C 228.222656 323.398438 228.914062 322.253906 229.511719 321.050781 C 230.105469 319.847656 230.59375 318.601562 230.976562 317.316406 C 231.363281 316.027344 231.632812 314.71875 231.796875 313.386719 C 236.167969 275.746094 252.828125 239.179688 281.777344 210.238281 C 315.867188 176.15625 360.355469 159.527344 405 159.527344 C 449.644531 159.527344 493.851562 176.121094 527.976562 210.238281 C 567.410156 249.660156 584.097656 303.21875 577.957031 354.449219 C 577.851562 355.28125 577.792969 356.117188 577.777344 356.957031 C 577.757812 357.792969 577.789062 358.628906 577.859375 359.464844 C 577.933594 360.300781 578.046875 361.132812 578.210938 361.953125 C 578.371094 362.777344 578.574219 363.589844 578.820312 364.390625 C 579.066406 365.191406 579.351562 365.980469 579.683594 366.75 C 580.011719 367.519531 580.382812 368.273438 580.792969 369.003906 C 581.199219 369.738281 581.648438 370.445312 582.132812 371.128906 C 582.617188 371.8125 583.136719 372.472656 583.691406 373.101562 C 584.242188 373.730469 584.828125 374.328125 585.445312 374.898438 C 586.066406 375.464844 586.710938 375.996094 587.382812 376.496094 C 588.058594 376.996094 588.757812 377.457031 589.480469 377.882812 C 590.203125 378.308594 590.945312 378.695312 591.710938 379.042969 C 592.472656 379.386719 593.253906 379.695312 594.050781 379.957031 C 594.847656 380.222656 595.652344 380.441406 596.472656 380.621094 C 597.292969 380.800781 598.121094 380.933594 598.953125 381.023438 C 599.789062 381.117188 600.625 381.164062 601.464844 381.164062 L 610.867188 381.164062 C 672.6875 381.164062 721.714844 430.179688 721.714844 491.980469 C 721.714844 553.785156 672.6875 602.800781 610.867188 602.800781 L 500.015625 602.800781 C 499.230469 602.789062 498.445312 602.816406 497.664062 602.882812 C 496.882812 602.949219 496.105469 603.050781 495.332031 603.195312 C 494.558594 603.339844 493.796875 603.519531 493.042969 603.738281 C 492.289062 603.957031 491.546875 604.214844 490.816406 604.507812 C 490.089844 604.800781 489.375 605.125 488.679688 605.492188 C 487.984375 605.851562 487.308594 606.25 486.652344 606.679688 C 485.992188 607.109375 485.359375 607.570312 484.75 608.0625 C 484.136719 608.558594 483.550781 609.078125 482.992188 609.628906 C 482.433594 610.179688 481.902344 610.757812 481.402344 611.363281 C 480.898438 611.96875 480.429688 612.59375 479.988281 613.242188 C 479.546875 613.894531 479.140625 614.566406 478.769531 615.257812 C 478.394531 615.945312 478.054688 616.65625 477.753906 617.378906 C 477.449219 618.101562 477.183594 618.839844 476.953125 619.589844 C 476.722656 620.339844 476.53125 621.101562 476.375 621.871094 C 476.222656 622.640625 476.105469 623.414062 476.027344 624.195312 C 475.949219 624.980469 475.910156 625.761719 475.910156 626.546875 C 475.910156 627.332031 475.949219 628.113281 476.027344 628.894531 C 476.105469 629.675781 476.222656 630.453125 476.375 631.222656 C 476.53125 631.992188 476.722656 632.753906 476.953125 633.503906 C 477.183594 634.253906 477.449219 634.992188 477.753906 635.714844 C 478.054688 636.4375 478.394531 637.148438 478.769531 637.835938 C 479.140625 638.527344 479.546875 639.199219 479.988281 639.847656 C 480.429688 640.5 480.898438 641.125 481.402344 641.730469 C 481.902344 642.332031 482.433594 642.910156 482.992188 643.460938 C 483.550781 644.011719 484.136719 644.535156 484.75 645.027344 C 485.359375 645.519531 485.992188 645.980469 486.652344 646.410156 C 487.308594 646.84375 487.984375 647.238281 488.679688 647.601562 C 489.375 647.964844 490.089844 648.292969 490.816406 648.585938 C 491.546875 648.878906 492.289062 649.132812 493.042969 649.351562 C 493.796875 649.570312 494.558594 649.753906 495.332031 649.894531 C 496.105469 650.039062 496.882812 650.144531 497.664062 650.210938 C 498.445312 650.277344 499.230469 650.304688 500.015625 650.292969 L 610.867188 650.292969 C 698.183594 650.292969 769.222656 579.273438 769.222656 491.980469 C 769.222656 409.59375 705.738281 342.527344 625.21875 335.15625 C 625.589844 277.855469 605.230469 220.433594 561.625 176.84375 C 518.449219 133.679688 461.675781 112.035156 405 112.035156 Z M 405 365.332031 C 397.082031 365.332031 392.894531 367.878906 388.917969 371.515625 L 301.820312 450.671875 C 291.761719 460.003906 291.9375 475.144531 300.335938 484.3125 C 308.730469 493.480469 324.773438 494.144531 333.984375 485.796875 L 381.246094 442.757812 L 381.246094 674.039062 C 381.246094 687.152344 391.878906 697.785156 405 697.785156 C 418.121094 697.785156 428.753906 687.152344 428.753906 674.039062 L 428.753906 442.753906 L 476.015625 485.796875 C 485.226562 494.140625 500.785156 493.011719 509.664062 484.3125 C 519.023438 475.144531 517.308594 459.109375 508.179688 450.671875 L 421.082031 371.515625 C 416.378906 367.210938 412.917969 365.332031 405 365.332031 Z M 405 365.332031 " fill-opacity="1" fill-rule="nonzero"/></g></svg>